<svg width="670" height="670" viewBox="0 0 670 670" fill="none" xmlns="http://www.w3.org/2000/svg">
<path d="M310.344 193.898C289.708 119.126 196.846 95.006 143.514 150.884C142.71 151.688 142.04 152.492 141.236 153.296C64.856 236.242 100.902 440.726 260.228 492.584C419.554 544.442 585.312 449.704 594.558 365.15C603.804 280.596 530.372 253.93 416.338 277.648C352.018 291.182 323.208 240.53 310.344 193.898Z" fill="#CCE1F7"/>
<path d="M471.144 211.184C449.838 214.668 443.942 233.562 460.424 246.962C465.918 251.384 473.69 255.136 484.678 256.878C526.888 263.846 549.266 245.22 532.248 221.1C521.796 206.092 492.182 207.7 471.144 211.184Z" fill="#CCE1F7"/>
<path d="M83.616 337.412C70.35 320.394 50.92 324.28 47.034 345.05C45.694 351.884 46.23 360.594 49.982 371.18C64.052 411.514 91.12 422.234 104.252 395.836C112.426 379.488 96.748 354.296 83.616 337.412Z" fill="#CCE1F7"/>
<path d="M374.128 173.396L376.406 162.14L365.82 160.13C365.82 157.316 365.284 154.502 364.48 151.822L373.19 145.926L366.758 136.412L358.45 142.04C355.904 139.494 353.09 137.618 349.874 136.278L352.018 125.692L340.762 123.414L338.618 134.268C336.34 134.402 334.062 134.804 331.784 135.608L325.888 126.898L316.374 133.33L322.002 141.638C319.456 144.184 317.58 146.998 316.24 150.214L306.994 148.338L304.716 159.594L314.23 161.47C314.364 164.418 315.034 167.366 316.24 170.18L307.932 175.808L314.364 185.322L323.074 179.426C325.62 181.57 328.434 183.178 331.516 184.25L329.372 194.836L340.628 197.114L342.906 185.59C345.452 185.322 347.864 184.652 350.276 183.714L355.904 192.022L365.418 185.59L359.522 176.88C361.13 175.138 362.336 173.128 363.408 170.984L374.128 173.396ZM345.72 168.974C340.896 172.19 334.33 170.984 331.114 166.16C327.898 161.336 329.104 154.77 333.928 151.554C338.752 148.338 345.318 149.544 348.534 154.368C351.75 159.192 350.544 165.758 345.72 168.974Z" fill="#CCE1F7"/>
<path d="M310.21 121.538L311.416 115.374L305.654 114.302C305.654 112.828 305.386 111.22 304.85 109.746L309.674 106.53L306.19 101.304L301.634 104.386C300.294 103.046 298.686 101.974 296.944 101.304L298.016 95.542L291.852 94.336L290.646 100.232C289.44 100.366 288.1 100.5 286.894 100.902L283.678 96.078L278.452 99.562L281.534 104.118C280.194 105.458 279.122 107.066 278.452 108.808L273.36 107.87L272.154 114.034L277.38 115.106C277.514 116.714 277.782 118.322 278.452 119.93L273.896 123.012L277.38 128.238L282.204 125.022C283.544 126.228 285.152 127.166 286.76 127.702L285.554 133.464L291.718 134.67L292.924 128.372C294.264 128.238 295.604 127.836 296.944 127.3L300.026 131.856L305.252 128.372L302.036 123.548C302.84 122.61 303.644 121.538 304.18 120.332L310.21 121.538ZM294.8 119.126C292.12 120.868 288.636 120.198 286.76 117.518C285.018 114.838 285.688 111.354 288.368 109.478C291.048 107.736 294.532 108.406 296.408 111.086C298.15 113.766 297.346 117.25 294.8 119.126Z" fill="#CCE1F7"/>
<path d="M620.554 153.028L621.76 146.864L615.998 145.792C615.998 144.318 615.73 142.71 615.194 141.236L620.018 138.02L616.534 132.794L611.978 135.876C610.638 134.536 609.03 133.464 607.288 132.794L608.36 127.032L602.196 125.826L600.99 131.722C599.784 131.856 598.444 131.99 597.238 132.392L594.022 127.568L588.796 131.052L591.878 135.608C590.538 136.948 589.466 138.556 588.796 140.298L583.704 139.36L582.498 145.524L587.724 146.596C587.858 148.204 588.126 149.812 588.796 151.42L584.24 154.502L587.724 159.728L592.548 156.512C593.888 157.718 595.496 158.656 597.104 159.192L595.898 164.954L602.062 166.16L603.268 159.862C604.608 159.728 605.948 159.326 607.288 158.79L610.37 163.346L615.596 159.862L612.38 155.038C613.184 154.1 613.988 153.028 614.524 151.822L620.554 153.028ZM605.01 150.616C602.33 152.358 598.846 151.688 596.97 149.008C595.228 146.328 595.898 142.844 598.578 140.968C601.258 139.226 604.742 139.896 606.618 142.576C608.36 145.256 607.69 148.874 605.01 150.616Z" fill="#CCE1F7"/>
<path d="M92.9959 229.81L94.2019 223.646L88.4399 222.44C88.4399 220.966 88.1719 219.358 87.6359 217.884L92.4599 214.668L88.9759 209.442L84.4199 212.524C83.0799 211.184 81.4719 210.112 79.7299 209.442L80.8019 203.68L74.6379 202.474L73.4319 208.37C72.2259 208.504 70.8859 208.638 69.6799 209.04L66.4639 204.216L61.2379 207.7L64.3199 212.256C62.9799 213.596 61.9079 215.204 61.2379 216.946L56.1459 216.008L54.9399 222.172L60.1659 223.244C60.2999 224.852 60.5679 226.46 61.2379 228.068L56.6819 231.15L60.1659 236.376L64.9899 233.16C66.3299 234.366 67.9379 235.304 69.5459 235.84L68.3399 241.602L74.5039 242.808L75.7099 236.51C77.0499 236.376 78.3899 235.974 79.7299 235.438L82.8119 239.994L88.0379 236.51L84.8219 231.686C85.6259 230.748 86.4299 229.676 86.9659 228.47L92.9959 229.81ZM77.5859 227.264C74.9059 229.006 71.4219 228.336 69.5459 225.656C67.8039 222.976 68.4739 219.492 71.1539 217.616C73.8339 215.874 77.3179 216.544 79.1939 219.224C80.9359 221.904 80.1319 225.522 77.5859 227.264Z" fill="#CCE1F7"/>
<path d="M334.598 536.67C232.356 536.67 142.978 532.248 94.47 525.548C89.378 524.878 87.77 532.248 92.728 533.588C125.826 542.968 172.726 543.638 202.608 546.854C254.198 552.348 329.238 550.874 334.464 568.83C339.69 586.786 340.226 605.814 287.698 603.134C230.614 600.186 240.128 568.83 240.128 568.83C187.198 570.304 61.238 557.976 47.302 536.536C33.5 515.364 58.826 510.406 59.362 510.406C80.668 499.686 195.774 491.378 334.464 491.378C488.43 491.378 613.184 501.428 613.184 514.024C613.318 526.486 488.43 536.67 334.598 536.67Z" fill="#CCE1F7"/>
<path d="M143.648 471.144C131.32 458.816 104.52 429.738 87.636 396.908C63.382 349.606 39.128 353.894 34.304 370.644C21.976 413.792 94.604 460.826 124.754 478.112L143.648 471.144Z" fill="#3B73AB"/>
<path d="M136.948 473.556C115.776 457.744 97.954 438.984 85.76 424.78C69.546 405.886 59.764 390.878 59.63 390.744C59.228 390.208 58.558 390.074 58.022 390.342C57.486 390.744 57.352 391.414 57.62 391.95C57.754 392.084 67.536 407.226 83.884 426.254C95.944 440.19 113.498 458.682 134.268 474.494L136.948 473.556Z" fill="#00528A"/>
<path d="M140.566 454.528C134.938 443.138 124.084 419.42 120.064 395.166C114.034 358.986 97.284 356.574 90.584 366.624C72.226 393.96 116.178 444.478 130.114 459.352L140.566 454.528Z" fill="#00528A"/>
<path d="M136.546 456.404C125.826 441.396 118.054 425.182 112.962 413.256C106.262 397.31 103.046 385.384 102.912 385.384C102.778 384.982 102.376 384.714 101.974 384.848C101.572 384.982 101.304 385.384 101.438 385.786C101.438 385.92 104.788 397.98 111.488 413.926C116.58 425.852 124.352 442.2 135.072 457.208L136.546 456.404Z" fill="#01305A"/>
<path d="M542.834 287.564C554.09 274.298 578.746 243.344 593.084 209.308C613.72 160.398 638.242 162.81 644.272 179.024C659.816 221.1 590.94 273.36 562.13 292.924L542.834 287.564Z" fill="#3B73AB"/>
<path d="M549.534 289.44C569.5 272.02 585.848 251.92 596.97 236.912C611.71 216.812 620.42 201.134 620.42 201C620.688 200.464 621.492 200.196 622.028 200.598C622.564 200.866 622.832 201.67 622.43 202.206C622.296 202.34 613.586 218.152 598.846 238.386C587.992 253.26 571.778 272.958 552.214 290.244L549.534 289.44Z" fill="#00528A"/>
<path d="M544.576 270.68C549.4 258.888 558.378 234.5 560.522 209.978C563.738 173.396 580.354 169.778 587.858 179.292C608.092 205.288 568.16 258.754 555.43 274.7L544.576 270.68Z" fill="#00528A"/>
<path d="M548.73 272.288C558.244 256.61 564.944 239.726 568.964 227.398C574.458 211.05 576.87 198.856 576.87 198.856C577.004 198.454 577.406 198.186 577.808 198.186C578.21 198.32 578.478 198.722 578.478 199.124C578.478 199.258 576.066 211.452 570.572 227.934C566.418 240.262 559.852 257.012 550.338 272.824L548.73 272.288Z" fill="#01305A"/>
<path d="M199.258 149.008C201.402 129.31 199.66 110.148 189.878 114.838C180.096 119.528 183.446 152.358 196.846 173.932L199.66 182.374C190.146 166.428 171.252 152.894 163.48 157.986C155.708 162.944 169.108 170.85 182.642 175.942C192.826 179.828 198.722 184.786 201.402 187.466L214.534 227.398C199.526 202.206 169.644 180.9 157.316 188.94C145.122 196.846 166.294 209.308 187.6 217.482C203.68 223.646 212.926 231.284 217.214 235.706L219.894 243.612C221.368 243.344 222.842 243.076 224.182 242.808L208.638 195.64C209.71 191.62 211.72 185.992 215.874 179.56C223.646 167.5 229.676 153.162 220.564 153.698C212.658 154.234 206.226 170.716 205.824 187.064L200.464 170.716C199.526 165.222 198.32 157.584 199.258 149.008Z" fill="#00528A"/>
<path d="M609.03 383.374C614.39 364.212 622.966 347.06 630.336 355.1C637.706 363.14 622.43 392.352 602.062 407.494L596.3 414.328C611.04 403.072 633.552 397.444 638.912 404.948C644.272 412.452 628.862 414.864 614.524 414.596C603.536 414.462 596.434 416.874 592.816 418.482L565.882 450.642C589.198 432.82 624.842 424.11 633.284 436.036C641.726 447.962 617.338 451.714 594.558 451.312C577.272 451.044 565.882 454.796 560.254 457.342L554.894 463.774C553.688 462.97 552.348 462.3 551.142 461.496L583.302 423.172C583.838 419.018 583.972 412.988 582.498 405.484C579.818 391.414 579.416 375.87 587.724 379.756C594.96 383.106 594.826 400.794 589.198 416.204L600.32 402.938C602.732 398.382 606.752 391.682 609.03 383.374Z" fill="#3B73AB"/>
<path d="M161.872 353.492H183.982C172.056 351.482 142.576 338.886 139.896 313.426C136.546 281.266 125.022 281.668 105.726 278.184C86.43 274.7 81.07 280.328 68.742 255.27C56.414 230.212 29.078 227.13 29.078 227.13C29.078 227.13 54.002 254.332 49.312 275.102C44.488 295.738 61.104 304.046 74.37 306.726C87.636 309.272 84.42 327.094 89.512 338.618C91.79 343.844 101.17 349.204 110.818 353.626H161.872V353.492Z" fill="#00528A"/>
<path d="M114.034 321.734C114.972 331.382 120.6 342.906 128.908 352.42C129.176 352.822 129.444 353.09 129.846 353.492H132.392C131.722 352.688 131.052 352.018 130.382 351.214C122.476 342.102 116.848 330.712 116.044 321.6C114.57 306.994 103.314 297.078 79.596 289.44C65.794 285.018 61.372 268.134 61.372 268C61.238 267.464 60.702 267.196 60.3 267.33C59.764 267.464 59.496 268 59.63 268.402C59.764 269.072 64.32 286.358 79.06 291.182C101.84 298.552 112.694 308.066 114.034 321.734Z" fill="#01305A"/>
<path d="M150.482 353.492H196.846V353.358C198.186 348.668 198.856 343.978 198.99 339.154C199.526 322.94 199.794 282.204 189.342 271.752C176.21 258.62 149.678 253.528 153.162 233.696C156.646 213.864 154.1 186.528 122.744 182.106C91.388 177.684 67.134 128.372 67.134 128.372C67.134 128.372 56.816 168.036 84.956 198.454C113.096 228.872 102.644 233.294 96.882 261.97C91.12 290.646 84.554 306.324 127.434 328.166C139.226 334.196 146.328 343.308 150.482 353.492Z" fill="#3B73AB"/>
<path d="M126.63 231.552C124.62 268.67 132.258 289.574 151.688 299.49C163.882 305.654 176.746 319.456 185.188 335.402C187.868 340.494 190.548 346.524 192.692 353.492H195.506C193.362 345.988 190.414 339.422 187.6 334.062C178.756 317.312 165.758 303.51 152.894 297.078C134.536 287.832 127.3 267.732 129.31 231.82C130.65 208.772 108.942 193.362 108.138 192.692C107.468 192.29 106.664 192.424 106.262 193.094C105.86 193.764 105.994 194.568 106.53 194.97C106.798 194.97 127.836 209.978 126.63 231.552Z" fill="#00528A"/>
<path d="M421.028 279.926H443.54L466.454 265.052C472.082 256.208 477.04 246.56 476.102 240.932C474.092 228.604 461.63 215.472 471.412 205.958C481.06 196.578 490.44 180.632 475.164 165.892C459.888 151.152 465.918 114.704 465.918 114.704C465.918 114.704 444.746 132.258 448.096 159.996C451.446 187.6 443.942 185.992 429.604 199.392C415.266 212.792 405.35 218.688 420.224 247.498C425.718 258.084 424.646 269.876 421.028 279.926Z" fill="#00528A"/>
<path d="M446.22 240.396C450.642 248.972 452.25 261.702 450.508 274.164C450.508 274.566 450.374 275.102 450.24 275.504L448.096 276.844C448.23 275.772 448.498 274.834 448.632 273.896C450.374 261.836 448.766 249.374 444.478 241.2C437.778 228.202 441.798 213.73 457.476 194.3C466.588 183.044 461.094 166.562 460.96 166.428C460.826 165.892 461.094 165.49 461.496 165.222C462.032 165.088 462.568 165.356 462.702 165.758C462.97 166.428 468.598 183.312 458.816 195.506C443.942 214.266 439.922 228.068 446.22 240.396Z" fill="#01305A"/>
<path d="M505.984 279.926C508.664 277.782 511.612 275.772 514.962 274.03C557.842 252.188 551.142 236.376 545.514 207.834C539.886 179.158 529.3 174.736 557.44 144.318C585.58 113.9 575.262 74.236 575.262 74.236C575.262 74.236 550.874 123.414 519.518 127.97C488.162 132.392 485.616 159.862 489.1 179.56C492.584 199.392 466.186 204.484 452.92 217.616C443.406 227.13 442.736 261.702 443.138 280.06H505.984V279.926Z" fill="#3B73AB"/>
<path d="M458.012 279.926C466.454 264.516 478.916 251.25 490.842 245.22C510.272 235.438 518.044 214.534 515.9 177.282C514.694 155.708 535.732 140.7 536 140.566C536.67 140.164 536.804 139.226 536.268 138.69C535.866 138.02 534.928 137.886 534.392 138.288C533.454 138.958 511.88 154.368 513.22 177.416C515.23 213.328 507.994 233.428 489.636 242.674C476.772 249.24 463.774 263.042 454.93 279.658C454.93 279.658 454.93 279.658 454.93 279.792H458.012V279.926Z" fill="#00528A"/>
<path d="M561.996 225.656V468.062C561.996 478.112 553.956 486.152 543.906 486.152H130.784C120.734 486.152 112.694 478.112 112.694 468.062V225.656C112.694 215.606 120.734 207.566 130.784 207.566H543.906C553.956 207.566 561.996 215.606 561.996 225.656Z" fill="#01305A"/>
<path d="M542.03 237.984V455.734C542.03 462.166 536.804 467.392 530.372 467.392H144.184C141.504 467.392 138.958 466.454 136.948 464.846C136.412 464.444 135.876 464.042 135.474 463.506C133.598 461.496 132.526 458.682 132.526 455.734V237.984C132.526 231.552 137.752 226.326 144.184 226.326H530.372C532.516 226.326 534.526 226.862 536.268 227.934C537.876 228.872 539.216 230.212 540.288 231.82C541.36 233.562 542.03 235.706 542.03 237.984Z" fill="white"/>
<path d="M273.092 389.538H257.28V410.04H218.42V389.672H156.646V364.212L207.164 291.048H248.302L203.412 358.584H219.626V340.36H257.28V358.584H273.092V389.538Z" fill="#FF7C78"/>
<path d="M278.72 350.41C278.72 310.88 301.232 288.1 332.722 288.1C364.212 288.1 386.724 310.88 386.724 350.41C386.724 389.94 364.212 412.72 332.722 412.72C301.232 412.72 278.72 389.94 278.72 350.41ZM346.256 350.41C346.256 327.496 340.494 320.26 332.588 320.26C324.816 320.26 318.92 327.362 318.92 350.41C318.92 373.458 324.682 380.56 332.588 380.56C340.494 380.56 346.256 373.458 346.256 350.41Z" fill="#FF7C78"/>
<path d="M511.88 389.538H496.068V410.04H457.074V389.672H395.3V364.212L445.818 291.048H486.956L442.066 358.584H458.28V340.36H496.068V358.584H511.88V389.538Z" fill="#FF7C78"/>
<path d="M603.938 476.504V478.112C603.938 485.884 601.526 492.986 597.238 498.748C590.806 507.592 580.354 513.354 568.696 513.354H105.994C94.202 513.354 83.75 507.592 77.452 498.748C73.298 492.986 70.752 485.75 70.752 478.112V476.504H603.938Z" fill="#01305A"/>
<path d="M277.514 476.504V476.906C277.514 479.72 279.39 481.998 281.668 481.998H390.476C392.754 481.998 394.63 479.72 394.63 476.906V476.504H277.514Z" fill="#01305A"/>
<path opacity="0.2" d="M542.03 237.984V250.848H132.66V237.984C132.66 235.572 133.464 233.16 134.804 231.284C136.948 228.336 140.432 226.326 144.318 226.326H530.506C534.392 226.326 537.876 228.336 540.02 231.284C541.226 233.16 542.03 235.438 542.03 237.984Z" fill="#01305A"/>
<path d="M443.138 242.406H226.058C225.522 242.406 224.986 242.004 224.986 241.334V236.912C224.986 236.376 225.388 235.84 226.058 235.84H443.138C443.674 235.84 444.21 236.242 444.21 236.912V241.334C444.21 242.004 443.674 242.406 443.138 242.406Z" fill="white"/>
<path d="M172.726 239.19V241.602C172.726 242.272 171.922 242.674 171.386 242.406L169.242 241.2L167.098 239.994C166.562 239.592 166.562 238.788 167.098 238.386L169.242 237.18L171.386 235.974C171.922 235.572 172.726 236.108 172.726 236.778V239.19Z" fill="#01305A"/>
<path d="M183.446 239.19V241.602C183.446 242.272 184.25 242.674 184.786 242.406L186.93 241.2L189.074 239.994C189.61 239.592 189.61 238.788 189.074 238.386L186.93 237.18L184.786 235.974C184.25 235.572 183.446 236.108 183.446 236.778V239.19Z" fill="#01305A"/>
<path opacity="0.2" d="M539.886 231.284H134.67C136.814 228.336 140.298 226.326 144.184 226.326H530.372C534.392 226.326 537.876 228.336 539.886 231.284Z" fill="#01305A"/>
<path opacity="0.1" d="M458.28 448.766H210.916C206.092 448.766 202.206 444.88 202.206 440.056C202.206 435.232 206.092 431.346 210.916 431.346H458.28C463.104 431.346 466.99 435.232 466.99 440.056C466.99 444.746 463.104 448.766 458.28 448.766Z" fill="#01305A"/>
<path d="M491.914 406.958C490.038 410.576 488.162 413.792 486.42 416.472C473.154 436.572 463.238 432.284 458.012 426.12C456.136 423.976 454.796 421.564 453.858 419.42C452.25 415.936 451.714 412.854 451.58 411.514L453.992 412.05C456.94 413.39 461.764 415.266 465.382 414.73C465.784 414.596 466.32 414.596 466.722 414.328C469.938 413.122 474.36 406.824 477.308 402C479.184 398.784 480.524 396.372 480.524 396.372L491.914 406.958Z" fill="#FFC0AD"/>
<path d="M491.914 406.958C490.038 410.576 488.162 413.792 486.42 416.472C482.668 412.318 479.184 406.288 477.174 402.134C479.05 398.918 480.39 396.506 480.39 396.506L491.914 406.958Z" fill="#FDA084"/>
<path d="M468.062 415.4C468.062 415.4 465.382 423.574 453.724 419.42C452.116 415.936 451.58 412.854 451.446 411.514L453.858 412.05C456.806 413.39 461.63 415.266 465.248 414.73L468.062 415.4Z" fill="#FDA084"/>
<path d="M577.004 436.438C574.324 451.848 561.728 440.592 560.656 428.532C560.388 425.852 560.388 423.038 560.388 420.358C560.388 417.812 560.522 415.4 560.79 413.256C560.79 412.854 560.924 412.452 560.924 412.05C561.326 406.824 561.996 403.072 561.996 403.072L570.17 393.022C570.17 393.022 571.108 395.836 572.314 400.258C573.386 404.278 574.86 409.638 575.798 415.266C576.066 417.008 576.334 418.616 576.602 420.358C577.54 425.986 577.808 431.748 577.004 436.438Z" fill="#FFC0AD"/>
<path d="M572.448 400.124C570.036 404.546 566.016 410.576 560.79 413.256C560.79 412.854 560.924 412.452 560.924 412.05C561.326 406.824 561.996 403.072 561.996 403.072L570.17 393.022C570.17 392.888 571.242 395.702 572.448 400.124Z" fill="#FDA084"/>
<path d="M576.736 420.224C573.788 421.966 564.006 421.162 560.388 420.358C560.388 417.41 560.656 414.596 560.79 412.05L575.798 415.132C576.2 416.74 576.468 418.482 576.736 420.224Z" fill="#FDA084"/>
<path d="M490.306 368.5C490.306 368.5 478.38 389.538 476.504 396.64C476.504 396.64 484.678 410.174 492.048 411.782L494.728 402.536C494.594 402.402 494.996 373.458 490.306 368.5Z" fill="#3B73AB"/>
<path d="M516.436 357.646L490.306 368.5L501.83 458.012C501.83 458.012 537.742 463.104 556.368 458.012V368.5L530.908 357.11L516.436 357.646Z" fill="#3B73AB"/>
<path d="M511.076 406.422C515.498 410.978 521.662 415.266 530.238 417.812C530.506 417.946 530.908 417.678 530.908 417.276C530.908 417.008 530.774 416.74 530.506 416.74C522.198 414.328 516.168 410.174 511.88 405.752C511.612 405.484 510.942 405.618 510.942 406.02C510.942 406.154 510.942 406.288 511.076 406.422Z" fill="#00528A"/>
<path d="M511.21 397.98C511.21 398.114 511.21 398.248 511.344 398.248C511.612 398.784 512.014 399.32 512.282 399.856C514.292 402.804 518.312 406.69 525.146 408.566H525.28C525.548 408.566 525.682 408.432 525.816 408.164C525.95 407.896 525.682 407.628 525.414 407.494C518.044 405.484 514.158 401.062 512.148 397.712C512.014 397.176 511.21 397.444 511.21 397.98Z" fill="#00528A"/>
<path d="M512.148 374.664C512.148 374.932 512.416 375.2 512.818 375.2C519.116 373.994 523.94 371.18 527.156 368.768C531.712 365.552 533.99 362.336 534.124 362.202C534.258 361.934 534.258 361.666 533.99 361.532C533.722 361.398 533.454 361.398 533.32 361.666C533.186 361.8 525.682 371.716 512.55 374.262C512.416 374.128 512.148 374.396 512.148 374.664Z" fill="#00528A"/>
<path d="M472.082 514.962L474.896 500.49H465.382L463.104 514.158C462.97 514.158 466.856 516.704 472.082 514.962Z" fill="#FFC0AD"/>
<path d="M465.516 514.828C465.516 514.828 463.372 512.014 461.764 512.148C460.156 512.282 447.426 522.6 443.004 523.538C438.582 524.476 439.52 527.692 440.324 529.3C441.128 530.908 475.432 528.228 475.432 528.228C475.432 528.228 476.236 518.044 475.164 514.962C473.824 511.88 469 515.632 465.516 514.828Z" fill="#00528A"/>
<path d="M458.548 522.064C458.682 522.064 458.816 522.064 459.084 522.064C459.352 521.93 459.486 521.528 459.352 521.26C459.352 521.126 457.878 518.848 456.136 517.91C453.724 516.704 451.848 518.044 451.714 518.178C451.446 518.446 451.446 518.714 451.58 518.982C451.848 519.25 452.116 519.25 452.384 519.116C452.384 519.116 453.724 518.178 455.466 518.982C456.94 519.652 458.146 521.796 458.146 521.796C458.28 521.93 458.28 522.064 458.548 522.064Z" fill="white"/>
<path d="M460.29 520.322C460.424 520.322 460.558 520.322 460.826 520.322C461.094 520.188 461.228 519.786 461.094 519.518C461.094 519.384 459.62 517.106 457.878 516.168C455.466 514.962 453.59 516.302 453.456 516.436C453.188 516.704 453.188 516.972 453.322 517.24C453.59 517.508 453.858 517.508 454.126 517.374C454.126 517.374 455.466 516.436 457.208 517.24C458.682 517.91 459.888 520.054 459.888 520.054C460.022 520.188 460.156 520.322 460.29 520.322Z" fill="white"/>
<path d="M456.002 523.538C456.136 523.538 456.27 523.538 456.538 523.538C456.806 523.404 456.94 523.002 456.806 522.734C456.806 522.6 455.332 520.322 453.59 519.384C451.178 518.178 449.302 519.518 449.168 519.652C448.9 519.92 448.9 520.188 449.034 520.456C449.302 520.724 449.57 520.724 449.838 520.59C449.838 520.59 451.178 519.652 452.92 520.456C454.394 521.126 455.6 523.27 455.6 523.27C455.734 523.404 455.868 523.538 456.002 523.538Z" fill="white"/>
<path d="M515.498 449.034C515.498 449.034 499.15 408.298 488.966 409.906C473.154 412.452 462.702 460.826 463.908 505.984L474.762 506.654C474.762 506.654 486.822 464.042 489.1 452.92C489.1 452.92 497.408 481.864 516.302 477.844C530.104 474.896 520.992 460.692 515.498 449.034Z" fill="#FF7C78"/>
<path d="M473.422 504.778L472.082 504.51C472.082 504.376 475.03 488.564 478.514 472.484C485.616 439.788 488.296 438.314 489.234 437.778C489.904 437.376 490.574 437.51 490.976 437.644C492.718 438.448 493.656 442.2 494.996 447.962C497.14 457.342 500.222 470.072 508.53 475.432L507.86 476.504C499.15 470.876 496.068 457.744 493.79 448.23C492.718 443.674 491.646 439.252 490.574 438.85C490.44 438.85 490.306 438.716 490.038 438.984C486.152 441.128 477.978 479.586 473.422 504.778Z" fill="#D84E5A"/>
<path d="M462.836 502.768L476.102 503.84H476.37L475.7 508.262L462.568 507.324L462.836 502.768Z" fill="#D84E5A"/>
<path d="M511.344 478.112C511.344 478.112 530.372 481.73 555.698 477.174C553.554 466.722 548.864 458.548 541.226 451.312L507.19 453.724C504.912 461.764 506.52 469.938 511.344 478.112Z" fill="#FF7C78"/>
<path d="M505.85 511.746C505.85 511.746 501.294 510.808 500.088 510.808C498.882 510.942 490.976 520.456 488.296 521.126C483.338 522.332 483.606 530.238 486.688 530.506C495.666 531.176 510.674 526.754 510.674 526.754C510.674 526.754 511.612 516.57 510.808 513.488C510.138 510.406 508.396 512.684 505.85 511.746Z" fill="#00528A"/>
<path d="M508.53 512.416L511.88 499.418H502.366L500.222 511.88C500.088 512.014 503.304 514.158 508.53 512.416Z" fill="#FFC0AD"/>
<path d="M498.882 520.724C499.016 520.724 499.15 520.724 499.418 520.59C499.686 520.322 499.686 520.054 499.552 519.786C499.418 519.652 497.81 517.508 495.934 516.838C493.388 515.9 491.646 517.508 491.646 517.508C491.378 517.776 491.378 518.178 491.646 518.312C491.914 518.58 492.316 518.58 492.45 518.312C492.45 518.312 493.656 517.24 495.532 517.91C497.14 518.446 498.48 520.456 498.48 520.456C498.614 520.59 498.748 520.724 498.882 520.724Z" fill="white"/>
<path d="M500.49 518.848C500.624 518.848 500.758 518.848 501.026 518.714C501.294 518.446 501.294 518.178 501.16 517.91C501.026 517.776 499.418 515.632 497.542 514.962C494.996 514.024 493.254 515.632 493.254 515.632C492.986 515.9 492.986 516.302 493.254 516.436C493.522 516.704 493.924 516.704 494.058 516.436C494.058 516.436 495.264 515.364 497.14 516.034C498.748 516.57 500.088 518.58 500.088 518.58C500.222 518.714 500.356 518.848 500.49 518.848Z" fill="white"/>
<path d="M496.604 522.466C496.738 522.466 496.872 522.466 497.14 522.332C497.408 522.064 497.408 521.796 497.274 521.528C497.14 521.394 495.532 519.25 493.656 518.58C491.11 517.642 489.368 519.25 489.368 519.25C489.1 519.518 489.1 519.92 489.368 520.054C489.636 520.322 490.038 520.322 490.172 520.054C490.172 520.054 491.378 518.982 493.254 519.652C494.862 520.188 496.202 522.198 496.202 522.198C496.336 522.332 496.47 522.466 496.604 522.466Z" fill="white"/>
<path d="M553.286 477.844C550.874 478.38 548.596 478.38 546.586 477.844C545.916 477.71 545.246 477.576 544.576 477.308C531.846 472.752 526.084 452.92 526.084 452.92C523.94 464.042 511.344 506.654 511.344 506.654L509.334 506.386L507.994 506.252L500.624 505.314C499.15 461.496 510.272 412.452 525.95 410.04C536.134 408.432 552.482 449.168 552.482 449.168C558.11 460.692 567.222 474.896 553.286 477.844Z" fill="#FF7C78"/>
<path d="M546.586 477.978C545.916 477.844 545.246 477.71 544.576 477.442C539.886 469.938 537.474 459.486 535.598 451.044C533.99 444.344 532.65 438.046 530.64 436.974C530.372 436.84 530.104 436.84 529.702 436.84C528.094 437.376 524.208 442.736 516.838 473.02C513.354 487.492 510.406 501.83 509.468 506.386C509.334 507.324 509.2 507.86 509.2 507.86L507.86 507.592C507.86 507.592 507.994 507.056 508.128 506.252C509.066 501.83 512.014 487.358 515.498 472.752C524.208 437.242 527.96 436.036 529.3 435.634C529.97 435.366 530.64 435.5 531.31 435.768C533.722 437.108 535.062 442.87 536.938 450.776C538.948 459.62 541.494 470.608 546.586 477.978Z" fill="#D84E5A"/>
<path d="M499.82 502.232L512.952 504.51L513.22 504.644L512.014 508.932L499.15 506.788L499.82 502.232Z" fill="#D84E5A"/>
<path d="M556.368 368.5L573.252 393.022C573.252 393.022 565.748 407.226 558.378 408.7C558.378 408.7 550.74 395.3 549.802 388.466C548.998 381.632 553.688 369.036 556.368 368.5Z" fill="#3B73AB"/>
<path d="M507.86 330.444C507.86 339.958 513.756 346.524 523.27 346.524C532.784 346.524 539.484 339.422 539.484 329.908C539.484 320.394 533.856 313.158 524.342 313.158C512.818 313.292 507.86 320.93 507.86 330.444Z" fill="#01305A"/>
<path d="M508.396 325.218C508.396 325.218 501.294 318.25 503.974 314.9C506.654 311.55 510.138 314.766 511.21 311.55C512.282 308.334 512.684 304.314 516.972 305.922C521.26 307.53 521.528 310.344 525.548 307.932C529.702 305.52 528.764 309.54 532.382 311.416C536 313.158 538.546 312.89 537.876 316.374C537.34 319.858 541.36 320.528 539.618 324.414C538.01 328.3 536 326.29 536 326.29L508.396 325.218Z" fill="#01305A"/>
<path d="M510.004 334.598C510.004 334.598 507.324 331.114 505.448 333.928C503.438 336.876 506.252 345.452 511.076 343.308L510.004 334.598Z" fill="#FDA084"/>
<path d="M509.87 340.762C509.736 340.762 509.468 340.628 509.468 340.494C508.664 337.814 505.984 336.742 505.984 336.742C505.716 336.608 505.716 336.474 505.716 336.206C505.85 335.938 505.984 335.938 506.252 335.938C506.386 335.938 509.468 337.144 510.272 340.226C510.406 340.494 510.272 340.628 509.87 340.762C510.004 340.762 510.004 340.762 509.87 340.762Z" fill="#FF7972"/>
<path d="M507.056 339.422C506.922 339.422 506.922 339.422 506.788 339.422C506.654 339.288 506.52 339.02 506.654 338.886C506.654 338.886 507.19 338.082 508.128 337.68C508.396 337.546 508.53 337.68 508.664 337.948C508.798 338.216 508.664 338.35 508.396 338.484C507.592 338.886 507.19 339.422 507.19 339.422C507.324 339.288 507.19 339.422 507.056 339.422Z" fill="#FF7972"/>
<path d="M537.206 334.598C537.206 334.598 539.886 331.114 541.762 333.928C543.772 336.876 540.958 345.452 536.134 343.308L537.206 334.598Z" fill="#FDA084"/>
<path d="M537.206 340.762C537.34 340.762 537.608 340.628 537.608 340.494C538.412 337.814 541.092 336.742 541.092 336.742C541.36 336.608 541.36 336.474 541.36 336.206C541.226 335.938 541.092 335.938 540.824 335.938C540.69 335.938 537.608 337.144 536.804 340.226C536.804 340.494 536.938 340.628 537.206 340.762Z" fill="#FF7972"/>
<path d="M540.02 339.422C540.154 339.422 540.154 339.422 540.288 339.422C540.422 339.288 540.556 339.02 540.422 338.886C540.422 338.886 539.886 338.082 538.948 337.68C538.68 337.546 538.546 337.68 538.412 337.948C538.278 338.216 538.412 338.35 538.68 338.484C539.484 338.886 539.886 339.422 539.886 339.422C539.752 339.288 539.886 339.422 540.02 339.422Z" fill="#FF7972"/>
<path d="M530.104 350.678V359.254C530.104 359.254 527.558 363.676 524.074 363.944C520.59 364.212 517.508 360.192 517.508 360.192V351.348L530.104 350.678Z" fill="#FFC0AD"/>
<path d="M530.104 350.678V354.43C527.826 356.976 523.672 357.646 517.508 356.708V351.214L530.104 350.678Z" fill="#FDA084"/>
<path d="M508.53 334.33C508.664 336.206 508.932 338.082 509.2 339.958C510.406 346.256 512.952 352.554 518.58 354.43C531.176 358.986 535.732 348.132 537.474 341.834C537.608 341.164 537.876 340.36 538.01 339.556C538.278 338.082 538.546 336.34 538.68 334.732C538.948 332.722 539.082 330.578 539.082 328.836C539.216 324.95 536.938 321.466 533.32 320.126C528.094 318.116 520.322 316.508 512.818 320.796C510.004 322.404 508.396 325.218 508.262 328.434C508.396 329.908 508.396 332.052 508.53 334.33Z" fill="#FFC0AD"/>
<path d="M508.53 334.33C508.664 336.206 508.932 338.082 509.2 339.958C510.406 346.256 512.952 352.554 518.58 354.43C531.176 358.986 535.732 348.132 537.474 341.834C537.608 341.164 537.876 340.36 538.01 339.556C538.278 338.082 538.546 336.34 538.68 334.732H536.804C536.402 335.938 534.392 343.04 533.722 344.112C532.248 340.628 525.012 342.906 525.012 342.906C524.61 343.04 524.074 343.174 523.672 343.174C523.136 343.174 522.734 343.04 522.332 342.906C522.332 342.906 515.096 340.494 513.622 343.844C512.952 342.772 510.54 335.536 510.138 334.732L508.53 334.33ZM523.672 344.38C531.98 343.308 530.64 347.73 530.64 347.73C529.702 348.534 528.898 349.204 528.362 349.472C526.62 350.41 524.744 350.812 523.538 350.812C522.332 350.812 521.93 351.08 518.714 349.338C518.178 349.07 517.642 348.534 516.972 347.998C516.704 347.194 515.364 343.04 523.672 344.38Z" fill="#01305A"/>
<path d="M518.178 335.67C518.178 336.608 517.642 337.278 517.106 337.278C516.57 337.278 516.034 336.474 516.034 335.67C516.034 334.866 516.57 334.062 517.106 334.062C517.642 334.062 518.178 334.732 518.178 335.67Z" fill="#01305A"/>
<path d="M530.64 335.67C530.64 336.608 530.104 337.278 529.568 337.278C529.032 337.278 528.496 336.474 528.496 335.67C528.496 334.732 529.032 334.062 529.568 334.062C530.104 334.062 530.64 334.732 530.64 335.67Z" fill="#01305A"/>
<path d="M512.55 331.65C512.55 331.65 516.034 328.97 519.384 329.506L519.518 331.248C519.518 331.248 514.962 332.052 513.086 333.66C512.684 332.99 512.55 332.32 512.55 331.65Z" fill="#01305A"/>
<path d="M534.124 331.65C534.124 331.65 530.64 328.97 527.29 329.506L527.156 331.248C527.156 331.248 531.712 332.052 533.588 333.66C533.99 332.99 534.124 332.32 534.124 331.65Z" fill="#01305A"/>
<path d="M523.672 342.102C524.342 342.102 525.012 341.834 525.146 341.834C525.414 341.7 525.414 341.566 525.414 341.298C525.28 341.03 525.146 341.03 524.878 341.03C524.476 341.164 523.672 341.432 523.27 341.164C523.136 341.164 523.136 341.03 523.136 340.762C523.002 339.288 523.404 334.598 523.404 334.464C523.404 334.196 523.27 334.062 523.002 334.062C522.734 334.062 522.6 334.196 522.6 334.464C522.6 334.598 522.198 339.288 522.332 340.896C522.332 341.432 522.734 341.7 522.868 341.834C523.136 342.102 523.404 342.102 523.672 342.102Z" fill="#FDA084"/>
<path d="M523.136 345.05C520.054 345.05 519.92 349.606 523.002 349.74C523.136 349.74 523.27 349.74 523.404 349.74C523.538 349.74 523.672 349.74 523.806 349.74C526.888 349.606 526.754 345.05 523.672 345.05H523.136Z" fill="white"/>
<path d="M538.68 334.598H536.804C537.072 332.722 537.34 329.506 535.732 328.97C530.908 327.496 537.206 324.146 534.928 322.404C532.784 320.662 527.29 321.466 523.538 321.332C519.786 321.198 513.622 321.198 512.148 321.6C510.674 322.002 511.478 324.414 512.014 326.29C512.55 328.166 510.138 330.31 509.87 332.32C509.736 332.856 509.736 333.66 509.87 334.598H508.396C508.262 332.186 508.128 330.042 508.262 328.166C508.262 324.95 510.004 322.136 512.818 320.528C520.322 316.24 528.094 317.848 533.32 319.858C536.938 321.198 539.216 324.816 539.082 328.568C539.082 330.578 538.948 332.588 538.68 334.598Z" fill="#01305A"/>
<path d="M622.832 477.174C620.554 486.152 614.122 492.852 604.34 496.738C601.794 497.81 599.248 498.48 597.104 498.882C597.238 498.748 597.238 498.748 597.372 498.614C598.846 496.47 600.186 494.192 601.258 491.78C607.69 489.368 615.06 484.812 617.472 475.7C619.75 466.99 616.132 453.858 608.226 442.334C602.062 433.222 587.858 417.544 563.202 414.462C541.628 411.782 527.692 415.132 515.364 417.946C504.912 420.358 494.996 422.77 482.802 420.626C473.958 419.018 467.124 416.74 461.094 414.864C449.972 411.246 442.602 408.834 431.078 413.524C411.514 421.564 402.67 454.93 402.67 455.198L397.176 453.724C397.578 452.25 406.69 417.276 429.068 408.164C442.602 402.536 451.714 405.618 463.104 409.37C469 411.246 475.566 413.524 484.008 414.998C494.996 416.874 503.974 414.864 514.292 412.452C527.156 409.504 541.628 406.02 564.14 408.834C574.726 410.174 584.508 413.792 593.352 419.554C600.99 424.646 607.958 431.346 613.184 439.118C621.626 452.25 625.512 466.722 622.832 477.174Z" fill="#00528A"/>
<path d="M348.4 507.86L361.13 467.526C366.624 450.374 384.982 440.86 402.134 446.22C419.286 451.714 428.8 470.072 423.44 487.224L410.71 527.558C384.714 519.384 374.262 516.168 348.4 507.86Z" fill="#FF7C78"/>
<path d="M448.632 412.184C448.632 412.184 449.704 409.638 451.982 406.154C453.054 404.412 455.734 403.608 456.002 405.618C456.27 407.226 455.064 408.566 454.796 410.174C454.796 410.174 455.332 409.236 456.672 406.824C457.878 404.68 459.486 404.814 459.62 406.422C459.888 407.896 459.352 407.896 458.95 409.102C458.414 410.71 457.744 412.586 457.744 412.586C457.744 412.586 458.28 410.308 460.156 407.762C460.96 406.556 461.898 405.216 463.238 407.092C463.908 408.03 462.97 410.442 462.3 413.122C462.3 413.122 463.64 409.504 465.516 408.7C466.99 408.03 467.66 408.566 467.124 410.576C466.454 413.122 465.918 413.792 465.382 415.266C464.846 416.74 462.836 418.884 461.362 418.482C459.754 417.946 459.486 416.874 458.414 416.874C457.342 416.74 455.6 416.874 454.93 416.204C454.26 415.534 453.456 415.4 452.25 415.4C450.91 415.4 448.498 413.792 448.632 412.184Z" fill="#FFC0AD"/>
<path d="M559.182 414.73C559.182 414.73 559.852 412.05 561.594 408.298C562.398 406.422 564.542 405.082 565.212 407.092C565.748 408.7 565.078 410.174 565.078 411.782C565.078 411.782 565.48 410.844 566.418 408.298C567.222 406.02 568.83 405.886 569.366 407.494C569.768 408.968 569.366 408.968 569.232 410.174C568.964 411.782 568.562 413.792 568.562 413.792C568.562 413.792 568.83 411.514 570.304 408.7C570.974 407.36 571.644 406.02 573.252 407.628C574.056 408.432 573.52 410.978 573.252 413.792C573.252 413.792 573.52 410.576 575.262 409.37C576.602 408.432 577.808 408.432 577.674 410.576C577.406 413.256 577.004 413.926 576.736 415.534C576.468 417.142 574.86 419.554 573.252 419.286C571.644 419.018 571.108 417.946 570.036 418.08C568.964 418.214 567.356 418.482 566.552 417.946C565.748 417.41 564.944 417.41 563.738 417.544C561.996 417.41 559.316 416.338 559.182 414.73Z" fill="#FFC0AD"/>
<path d="M341.968 546.854C341.968 547.926 341.566 548.998 340.762 549.668C340.092 550.338 339.02 550.874 337.948 550.874H322.002V542.834H337.948C340.226 542.834 341.968 544.71 341.968 546.854Z" fill="#00528A"/>
<path d="M341.968 575.53C341.968 576.602 341.566 577.674 340.762 578.344C340.092 579.014 339.02 579.55 337.948 579.55H322.002V571.51H337.948C340.226 571.51 341.968 573.252 341.968 575.53Z" fill="#00528A"/>
<path d="M329.238 542.834H322.002V550.874H329.238V542.834Z" fill="#01305A"/>
<path d="M329.238 571.51H322.002V579.55H329.238V571.51Z" fill="#01305A"/>
<path d="M258.486 556.502L258.218 562.8C191.888 560.522 140.432 555.564 105.19 548.462C75.04 542.298 56.28 534.392 47.57 524.208C43.148 518.982 41.272 513.086 42.076 506.52C43.416 495.532 53.198 487.492 71.02 482.4C71.288 484.544 71.69 486.688 72.36 488.698C60.3 492.182 49.58 497.944 48.374 507.324C47.838 512.014 49.178 516.168 52.394 520.054C60.032 529.032 78.256 536.402 106.53 542.298C141.37 549.4 192.424 554.224 258.486 556.502Z" fill="#00528A"/>
<path d="M322.002 593.888H279.658C261.568 593.888 246.962 579.282 246.962 561.192C246.962 543.102 261.568 528.496 279.658 528.496H322.002C322.002 555.698 322.002 566.686 322.002 593.888Z" fill="#FF7C78"/>
<path d="M612.514 305.52V327.228C612.514 330.042 610.236 332.454 607.288 332.454H567.892L555.966 336.742C554.76 337.144 553.554 335.938 554.09 334.732L558.646 323.074V305.52C558.646 302.706 560.924 300.294 563.872 300.294H607.288C610.236 300.294 612.514 302.572 612.514 305.52Z" fill="#FF7C78"/>
<path d="M574.592 320.662C576.664 320.662 578.344 318.982 578.344 316.91C578.344 314.838 576.664 313.158 574.592 313.158C572.52 313.158 570.84 314.838 570.84 316.91C570.84 318.982 572.52 320.662 574.592 320.662Z" fill="#FF7C78"/>
<path d="M586.518 320.662C588.59 320.662 590.27 318.982 590.27 316.91C590.27 314.838 588.59 313.158 586.518 313.158C584.446 313.158 582.766 314.838 582.766 316.91C582.766 318.982 584.446 320.662 586.518 320.662Z" fill="#FF7C78"/>
<path d="M598.444 320.662C600.516 320.662 602.196 318.982 602.196 316.91C602.196 314.838 600.516 313.158 598.444 313.158C596.372 313.158 594.692 314.838 594.692 316.91C594.692 318.982 596.372 320.662 598.444 320.662Z" fill="#FF7C78"/>
<path d="M413.926 173.664C413.926 168.84 417.946 164.82 422.77 164.82C427.594 164.82 431.614 168.84 431.614 173.664C431.614 178.488 427.594 182.508 422.77 182.508C417.946 182.508 413.926 178.488 413.926 173.664ZM416.606 173.664C416.606 177.014 419.286 179.694 422.636 179.694C425.986 179.694 428.666 177.014 428.666 173.664C428.666 170.314 425.986 167.634 422.636 167.634C419.42 167.5 416.606 170.314 416.606 173.664Z" fill="#FF7C78"/>
<path d="M384.312 135.608C384.312 130.784 388.332 126.764 393.156 126.764C397.98 126.764 402 130.784 402 135.608C402 140.432 397.98 144.452 393.156 144.452C388.198 144.452 384.312 140.566 384.312 135.608ZM386.992 135.608C386.992 138.958 389.672 141.638 393.022 141.638C396.372 141.638 399.052 138.958 399.052 135.608C399.052 132.258 396.372 129.578 393.022 129.578C389.806 129.578 386.992 132.258 386.992 135.608Z" fill="#FF7C78"/>
<path d="M386.992 178.086C387.796 178.086 388.332 177.416 388.332 176.746V170.582C388.332 169.778 387.662 169.242 386.992 169.242C386.188 169.242 385.652 169.912 385.652 170.582V176.746C385.652 177.416 386.322 178.086 386.992 178.086Z" fill="#3B73AB"/>
<path d="M386.992 188.806C387.796 188.806 388.332 188.136 388.332 187.466V181.302C388.332 180.498 387.662 179.962 386.992 179.962C386.188 179.962 385.652 180.632 385.652 181.302V187.466C385.652 188.136 386.322 188.806 386.992 188.806Z" fill="#3B73AB"/>
<path d="M378.416 180.364H383.91C384.714 180.364 385.25 179.694 385.25 179.024C385.25 178.22 384.58 177.684 383.91 177.684H378.416C377.612 177.684 377.076 178.354 377.076 179.024C377.076 179.694 377.746 180.364 378.416 180.364Z" fill="#3B73AB"/>
<path d="M390.208 180.364H395.702C396.506 180.364 397.042 179.694 397.042 179.024C397.042 178.22 396.372 177.684 395.702 177.684H390.208C389.404 177.684 388.868 178.354 388.868 179.024C388.734 179.694 389.404 180.364 390.208 180.364Z" fill="#3B73AB"/>
<path d="M424.512 137.216C425.316 137.216 425.852 136.546 425.852 135.876V129.712C425.852 128.908 425.182 128.372 424.512 128.372C423.708 128.372 423.172 129.042 423.172 129.712V135.876C423.038 136.546 423.708 137.216 424.512 137.216Z" fill="#00528A"/>
<path d="M424.512 147.936C425.316 147.936 425.852 147.266 425.852 146.596V140.432C425.852 139.628 425.182 139.092 424.512 139.092C423.708 139.092 423.172 139.762 423.172 140.432V146.596C423.038 147.266 423.708 147.936 424.512 147.936Z" fill="#00528A"/>
<path d="M415.802 139.494H421.296C422.1 139.494 422.636 138.824 422.636 138.154C422.636 137.35 421.966 136.814 421.296 136.814H415.802C414.998 136.814 414.462 137.484 414.462 138.154C414.462 138.958 415.132 139.494 415.802 139.494Z" fill="#00528A"/>
<path d="M427.594 139.494H433.088C433.892 139.494 434.428 138.824 434.428 138.154C434.428 137.35 433.758 136.814 433.088 136.814H427.594C426.79 136.814 426.254 137.484 426.254 138.154C426.12 138.958 426.79 139.494 427.594 139.494Z" fill="#00528A"/>
<path d="M157.852 112.962C157.852 108.138 161.872 104.118 166.696 104.118C171.52 104.118 175.54 108.138 175.54 112.962C175.54 117.786 171.52 121.806 166.696 121.806C161.872 121.806 157.852 117.786 157.852 112.962ZM160.666 112.962C160.666 116.312 163.346 118.992 166.696 118.992C170.046 118.992 172.726 116.312 172.726 112.962C172.726 109.612 170.046 106.932 166.696 106.932C163.346 106.798 160.666 109.612 160.666 112.962Z" fill="#FF7C78"/>
<path d="M123.816 129.578C123.816 124.754 127.836 120.734 132.66 120.734C137.484 120.734 141.504 124.754 141.504 129.578C141.504 134.402 137.484 138.422 132.66 138.422C127.702 138.422 123.816 134.402 123.816 129.578ZM126.496 129.578C126.496 132.928 129.176 135.608 132.526 135.608C135.876 135.608 138.556 132.928 138.556 129.578C138.556 126.228 135.876 123.548 132.526 123.548C129.31 123.548 126.496 126.228 126.496 129.578Z" fill="#3B73AB"/>
<path d="M118.724 153.43C119.528 153.43 120.064 152.76 120.064 152.09V145.926C120.064 145.122 119.394 144.586 118.724 144.586C117.92 144.586 117.384 145.256 117.384 145.926V152.09C117.25 152.76 117.92 153.43 118.724 153.43Z" fill="#FF7C78"/>
<path d="M118.724 164.15C119.528 164.15 120.064 163.48 120.064 162.81V156.646C120.064 155.842 119.394 155.306 118.724 155.306C117.92 155.306 117.384 155.976 117.384 156.646V162.81C117.25 163.48 117.92 164.15 118.724 164.15Z" fill="#FF7C78"/>
<path d="M110.014 155.708H115.508C116.312 155.708 116.848 155.038 116.848 154.368C116.848 153.564 116.178 153.028 115.508 153.028H110.014C109.21 153.028 108.674 153.698 108.674 154.368C108.674 155.038 109.344 155.708 110.014 155.708Z" fill="#FF7C78"/>
<path d="M121.806 155.708H127.3C128.104 155.708 128.64 155.038 128.64 154.368C128.64 153.564 127.97 153.028 127.3 153.028H121.806C121.002 153.028 120.466 153.698 120.466 154.368C120.332 155.038 121.002 155.708 121.806 155.708Z" fill="#FF7C78"/>
<path d="M143.648 96.078C144.452 96.078 144.988 95.408 144.988 94.738V88.574C144.988 87.77 144.318 87.234 143.648 87.234C142.844 87.234 142.308 87.904 142.308 88.574V94.738C142.174 95.542 142.844 96.078 143.648 96.078Z" fill="#00528A"/>
<path d="M143.648 106.798C144.452 106.798 144.988 106.128 144.988 105.458V99.294C144.988 98.49 144.318 97.954 143.648 97.954C142.844 97.954 142.308 98.624 142.308 99.294V105.458C142.174 106.262 142.844 106.798 143.648 106.798Z" fill="#00528A"/>
<path d="M134.938 98.356H140.432C141.236 98.356 141.772 97.686 141.772 97.016C141.772 96.212 141.102 95.676 140.432 95.676H134.938C134.134 95.676 133.598 96.346 133.598 97.016C133.598 97.82 134.268 98.356 134.938 98.356Z" fill="#00528A"/>
<path d="M146.73 98.356H152.224C153.028 98.356 153.564 97.686 153.564 97.016C153.564 96.212 152.894 95.676 152.224 95.676H146.73C145.926 95.676 145.39 96.346 145.39 97.016C145.256 97.82 145.926 98.356 146.73 98.356Z" fill="#00528A"/>
</svg>
