<svg xmlns="http://www.w3.org/2000/svg" xmlns:xlink="http://www.w3.org/1999/xlink" zoomAndPan="magnify" viewBox="0 0 375 374.999991" preserveAspectRatio="xMidYMid meet" version="1.0">
    <defs>
        <g />
        <clipPath id="id1">
            <path d="M 195 140 L 245 140 L 245 195 L 195 195 Z M 195 140 " clip-rule="nonzero" />
        </clipPath>
        <clipPath id="id2">
            <path d="M 247.503906 144.09375 L 201.914062 194.886719 L 195.21875 188.875 L 240.804688 138.082031 Z M 247.503906 144.09375 " clip-rule="nonzero" />
        </clipPath>
        <clipPath id="id3">
            <path d="M 247.589844 143.996094 L 152.40625 250.046875 L 145.710938 244.035156 L 240.890625 137.984375 Z M 247.589844 143.996094 " clip-rule="nonzero" />
        </clipPath>
        <clipPath id="id4">
            <path d="M 170 170 L 204 170 L 204 201 L 170 201 Z M 170 170 " clip-rule="nonzero" />
        </clipPath>
        <clipPath id="id5">
            <path d="M 173.957031 167.980469 L 203.28125 193.691406 L 197.347656 200.460938 L 168.023438 174.746094 Z M 173.957031 167.980469 " clip-rule="nonzero" />
        </clipPath>
        <clipPath id="id6">
            <path d="M 173.859375 167.894531 L 281.003906 261.839844 L 275.074219 268.605469 L 167.925781 174.660156 Z M 173.859375 167.894531 " clip-rule="nonzero" />
        </clipPath>
    </defs>
    <g fill="#ff8d55" fill-opacity="0.4">
        <g transform="translate(177.725317, 342.128725)">
            <g>
                <path d="M 74.484375 -151.207031 C 75.691406 -135.554688 70.183594 -119.726562 57.628906 -107.171875 C 33.371094 -82.914062 -3.613281 -85.496094 -27.867188 -109.75 C -52.121094 -134.003906 -54.703125 -170.992188 -30.449219 -195.246094 C -17.890625 -207.804688 -2.0625 -213.308594 13.589844 -212.105469 L 13.761719 -250.808594 C -11.699219 -250.808594 -37.328125 -241.003906 -56.765625 -221.566406 C -95.644531 -182.6875 -95.644531 -119.726562 -56.765625 -80.851562 C -17.890625 -41.972656 45.070312 -41.972656 83.945312 -80.851562 C 103.386719 -100.289062 113.191406 -125.921875 113.191406 -151.378906 Z M 74.484375 -151.207031 " />
            </g>
        </g>
    </g>
    <g fill="#a5a5ff" fill-opacity="1">
        <g transform="translate(183.909829, 328.238102)">
            <g>
                <path d="M 74.484375 -151.207031 C 75.691406 -135.554688 70.183594 -119.726562 57.628906 -107.171875 C 33.371094 -82.914062 -3.613281 -85.496094 -27.867188 -109.75 C -52.121094 -134.003906 -54.703125 -170.992188 -30.449219 -195.246094 C -17.890625 -207.804688 -2.0625 -213.308594 13.589844 -212.105469 L 13.761719 -250.808594 C -11.699219 -250.808594 -37.328125 -241.003906 -56.765625 -221.566406 C -95.644531 -182.6875 -95.644531 -119.726562 -56.765625 -80.851562 C -17.890625 -41.972656 45.070312 -41.972656 83.945312 -80.851562 C 103.386719 -100.289062 113.191406 -125.921875 113.191406 -151.378906 Z M 74.484375 -151.207031 " />
            </g>
        </g>
    </g>
    <path fill="#9aedb6" d="M 203.117188 145.992188 C 181.992188 145.992188 164.867188 163.121094 164.867188 184.242188 C 164.867188 205.367188 181.992188 222.492188 203.117188 222.492188 C 224.242188 222.492188 241.367188 205.367188 241.367188 184.242188 C 241.367188 163.121094 224.242188 145.992188 203.117188 145.992188 " fill-opacity="1" fill-rule="nonzero" />
    <path fill="#a5a5ff" d="M 195.007812 137.855469 C 173.882812 137.855469 156.757812 154.980469 156.757812 176.105469 C 156.757812 197.230469 173.882812 214.355469 195.007812 214.355469 C 216.132812 214.355469 233.257812 197.230469 233.257812 176.105469 C 233.257812 154.980469 216.132812 137.855469 195.007812 137.855469 " fill-opacity="1" fill-rule="nonzero" />
    <g clip-path="url(#id1)">
        <g clip-path="url(#id2)">
            <g clip-path="url(#id3)">
                <path fill="#ffd3bc" d="M 156.394531 245.605469 L 243.605469 148.4375 C 245.324219 146.519531 245.21875 143.621094 243.371094 141.960938 C 241.519531 140.300781 238.625 140.511719 236.90625 142.425781 L 149.695312 239.59375 C 147.976562 241.511719 148.082031 244.410156 149.929688 246.070312 C 151.78125 247.730469 154.675781 247.523438 156.394531 245.605469 Z M 156.394531 245.605469 " fill-opacity="1" fill-rule="nonzero" />
            </g>
        </g>
    </g>
    <g clip-path="url(#id4)">
        <g clip-path="url(#id5)">
            <g clip-path="url(#id6)">
                <path fill="#9aedb6" d="M 276.519531 257.90625 L 178.347656 171.828125 C 176.410156 170.128906 173.511719 170.269531 171.875 172.136719 C 170.234375 174.007812 170.476562 176.898438 172.414062 178.59375 L 270.585938 264.671875 C 272.519531 266.371094 275.417969 266.230469 277.058594 264.363281 C 278.695312 262.496094 278.453125 259.605469 276.519531 257.90625 Z M 276.519531 257.90625 " fill-opacity="1" fill-rule="nonzero" />
            </g>
        </g>
    </g>
</svg>